HIERARCHY
ROOT Hips
{
  OFFSET -114.392 91.8114 -76.9829
  CHANNELS 6 Xposition Yposition Zposition Zrotation Xrotation Yrotation
  JOINT ToSpine
  {
    OFFSET -2.69724 7.43032 -0.144315
    CHANNELS 3 Zrotation Xrotation Yrotation
    JOINT Spine
    {
      OFFSET -0.0310711 10.7595 1.96963
      CHANNELS 3 Zrotation Xrotation Yrotation
      JOINT Spine1
      {
        OFFSET 13.1342 3.43533 0.764692
        CHANNELS 3 Zrotation Xrotation Yrotation
        JOINT Neck
        {
          OFFSET 29.8703 7.82586 -0.130764
          CHANNELS 3 Zrotation Xrotation Yrotation
          JOINT Head
          {
            OFFSET 9.52751 0.295786 -0.907742
            CHANNELS 3 Zrotation Xrotation Yrotation
            End Site
            {
              OFFSET 16.4037 0.713936 2.7358
            }
          }
        }
        JOINT LeftShoulder
        {
          OFFSET 27.5574 4.95586 2.47156
          CHANNELS 3 Zrotation Xrotation Yrotation
          JOINT LeftArm
          {
            OFFSET 1.20734 -0.998971 20.1238
            CHANNELS 3 Zrotation Xrotation Yrotation
            JOINT LeftForeArm
            {
              OFFSET 26.8049 -0.0536703 -0.155908
              CHANNELS 3 Zrotation Xrotation Yrotation
              JOINT LeftHand
              {
                OFFSET 26.6817 0 0.320147
                CHANNELS 3 Zrotation Xrotation Yrotation
                End Site
                {
                  OFFSET 18.6119 0 0.382219
                }
              }
            }
          }
        }
        JOINT RightShoulder
        {
          OFFSET 27.5927 4.71444 -2.65209
          CHANNELS 3 Zrotation Xrotation Yrotation
          JOINT RightArm
          {
            OFFSET 2.83739 -1.17114 -18.7564
            CHANNELS 3 Zrotation Xrotation Yrotation
            JOINT RightForeArm
            {
              OFFSET 28.839 -0.0548439 1.22491
              CHANNELS 3 Zrotation Xrotation Yrotation
              JOINT RightHand
              {
                OFFSET 26.5114 0 -0.101894
                CHANNELS 3 Zrotation Xrotation Yrotation
                End Site
                {
                  OFFSET 18.2168 0 0
                }
              }
            }
          }
        }
      }
    }
  }
  JOINT LeftUpLeg
  {
    OFFSET -4.76168 -1.9167 -10.2353
    CHANNELS 3 Zrotation Xrotation Yrotation
    JOINT LeftLeg
    {
      OFFSET 2.55951 -42.0585 -8.02213
      CHANNELS 3 Zrotation Xrotation Yrotation
      JOINT LeftFoot
      {
        OFFSET 3.16357 -42.5282 -3.95426
        CHANNELS 3 Zrotation Xrotation Yrotation
        JOINT LeftToeBase
        {
          OFFSET 0.346054 -6.02161 12.8035
          CHANNELS 3 Zrotation Xrotation Yrotation
          End Site
          {
            OFFSET 0.134235 -1.35082 5.13018
          }
        }
      }
    }
  }
  JOINT RightUpLeg
  {
    OFFSET -4.94151 -1.41743 10.6446
    CHANNELS 3 Zrotation Xrotation Yrotation
    JOINT RightLeg
    {
      OFFSET -2.56294 -42.0364 -7.94377
      CHANNELS 3 Zrotation Xrotation Yrotation
      JOINT RightFoot
      {
        OFFSET -3.0952 -42.555 -4.02241
        CHANNELS 3 Zrotation Xrotation Yrotation
        JOINT RightToeBase
        {
          OFFSET -0.0828122 -6.13587 12.8035
          CHANNELS 3 Zrotation Xrotation Yrotation
          End Site
          {
            OFFSET -0.131328 -1.35082 5.13018
          }
        }
      }
    }
  }
}
MOTION
Frames:	20
Frame Time:	0.0333333
-265.387 94.834 -248.03 51.4446 -56.2413 -34.633 -70.1915 0 88.8779 65.068 67.601 21.3592 5.13726 18.7363 1.56354 -151.112 15.7693 178.423 -156.675 55.082 -169.43 0.544226 -12.2001 -33.8677 -64.9271 45.0411 -97.2354 11.8343 23.1386 -27.6612 4.15226 -0.372604 -7.84697 -1.02577 4.03061 39.653 -95.5939 -31.7379 58.3199 27.4333 -0.749335 88.4255 3.82218 0.261275 6.50969 -49.8966 2.49009 98.9469 -1.27878 30.732 4.07281 2.32652 -13.2055 -1.16968 0.817933 -3.51111 4.86089 -51.2954 -1.63092 80.7293 2.51988 28.937 7.20253 -10.1413 -14.4427 1.33103 1.8461 -2.03701 -11.0962 
-265.376 94.8339 -247.646 50.9602 -56.6341 -35.222 -70.1915 0 88.8779 62.7493 67.2974 23.783 6.37022 18.9043 1.11155 -151.518 14.4197 178.577 -157.099 53.7845 -168.894 0.566617 -12.1266 -33.4513 -65.3453 45.6204 -96.1814 12.1007 21.0745 -30.4088 3.85425 -0.341015 -7.65423 -1.03898 4.08328 39.5434 -95.4565 -32.4622 59.0296 23.7621 -0.679662 88.353 3.44176 0.252528 6.9247 -50.4883 2.74727 99.1941 -1.53801 30.1858 4.35186 2.26914 -12.9848 -1.15555 0.970656 -3.44285 3.71773 -51.3107 -1.37672 80.9108 2.08204 29.268 7.95915 -8.21688 -16.1803 1.33229 1.68347 1.93483 -10.8431 
-265.28 94.7587 -246.969 49.8569 -58.4152 -37.3288 -70.1915 0 88.8779 61.0819 67.8413 25.0282 7.12978 19.6637 0.911244 -150.845 12.9133 179.007 -156.164 52.2628 -168.265 0.587429 -12.0267 -33.2075 -65.3123 45.9047 -93.5758 14.9842 18.2616 -40.0879 3.47572 -0.275283 -6.66774 -1.14769 4.46291 39.6484 -95.0845 -32.863 60.0262 16.2692 -0.438779 88.4294 2.29455 0.180962 6.97496 -52.4598 2.31362 99.4089 -1.59524 28.8739 6.75253 1.96492 -13.1966 -1.16452 0.841096 -2.76544 2.49909 -51.7028 -1.49295 81.1167 1.63662 29.8294 9.44811 -11.979 -13.4943 1.33511 1.82485 -6.32413 -9.87747 
-265.235 94.7201 -246.489 48.5756 -58.3768 -38.761 -70.1915 0 88.8779 59.6849 67.382 26.6717 7.64578 19.5916 0.413124 -150.642 11.922 179.492 -156.631 51.3204 -167.352 0.677157 -11.6137 -32.2854 -62.7098 46.118 -92.9529 17.6872 14.2373 -51.909 3.18907 -0.240636 -6.22467 -1.23427 4.75117 39.7815 -98.5751 -31.5115 59.6716 17.617 -1.31061 85.8361 2.36285 0.173795 6.52755 -52.3288 1.93977 99.1654 -1.32493 28.6472 7.24048 1.73631 -13.453 -1.17869 0.586545 -2.3854 2.88608 -50.867 -1.55598 81.2893 1.36268 30.8018 10.4029 -11.0282 -14.4758 1.3129 1.7512 -4.88303 -9.76179 
-265.194 94.6596 -246.08 46.1439 -59.5256 -41.2946 -70.1915 0 88.8779 61.9174 68.2042 25.7194 7.22987 20.3133 -0.497814 -150.558 11.4541 -179.944 -156.607 50.9102 -166.298 0.688583 -11.5362 -32.119 -59.7996 45.2449 -91.929 18.4009 7.80276 -66.5719 2.53955 -0.17641 -5.48912 -1.20982 4.87941 38.4938 -101.663 -33.8178 59.8691 11.1523 -1.68588 81.6512 1.47362 0.117591 6.42698 -52.7346 2.01384 99.1582 -1.11471 28.3595 8.61288 1.17225 -13.6633 -1.18765 0.57488 -2.67604 3.78987 -50.4414 -0.776256 82.0494 0.726034 31.1285 11.5373 -11.8619 -13.6082 1.33592 1.77627 -7.35714 -9.05582 
-265.289 94.6385 -245.922 45.2662 -60.0771 -42.479 -70.1915 0 88.8779 67.2156 69.2159 19.7039 5.67623 20.2882 0.378346 -149.812 11.1121 -179.147 -156.377 50.6779 -164.12 0.660737 -11.6152 -32.5912 -56.8061 43.1216 -92.7177 15.3482 3.1977 -81.2235 1.71304 -0.106662 -4.54673 -1.24292 5.09715 37.9667 -105.157 -35.7252 60.464 -6.13954 1.37256 76.4086 -0.687334 -0.00745267 6.11397 -53.0227 1.84128 99.0948 -1.09211 28.1991 9.73667 1.18042 -13.7739 -1.19443 0.600548 -2.75489 3.86728 -50.312 -0.618964 82.3514 0.215237 31.3571 12.935 -10.7492 -13.8876 1.32384 1.70071 -7.08904 -8.34993 
-265.306 94.8186 -245.946 45.983 -61.1436 -43.2746 -70.1915 0 88.8779 75.6624 70.2422 8.64125 3.85644 20.1496 1.92042 -150.205 10.5887 -178.392 -157.134 50.3231 -161.925 0.665502 -11.6858 -32.414 -54.56 40.9565 -95.5436 11.8621 -1.6567 -92.6652 1.06423 -0.0552816 -3.40492 -1.37354 5.34586 39.1495 -108.309 -34.6423 62.3393 -16.2475 5.86655 70.0688 -1.83075 -0.0654672 5.21573 -54.7055 0.509549 99.1167 -1.13764 27.1502 10.0837 0.128713 -13.2038 -1.14395 0.929741 -3.72494 4.85419 -50.7865 -1.61954 82.334 -0.425836 32.1689 15.2226 -9.44311 -14.1317 1.31368 1.41991 -5.73274 -6.55586 
-265.847 94.8523 -247.233 36.4605 -61.0984 -51.3109 -70.1915 0 88.8779 83.0051 71.1483 3.28466 0.146543 20.92 2.32764 -150.981 10.0737 -177.488 -156.759 49.945 -160.466 0.545748 -12.4278 -32.2426 -52.4077 37.9601 -100.593 11.7563 -2.33127 -101.699 0.759654 -0.0271561 -1.87435 -1.53308 5.79789 40.2217 -112.941 -32.5949 63.8146 -7.17851 4.01746 59.8843 -0.880438 -0.0200244 5.42398 -48.6177 3.94496 102.12 -2.04033 31.7625 8.25399 -0.623346 -13.3113 -1.14564 1.29398 -4.97672 6.70652 -46.6229 1.11791 85.6146 -0.775455 31.1395 14.7842 -10.1997 -11.6563 1.33955 1.50329 -7.65408 -6.05749 
-265.969 94.8147 -248.347 32.3281 -61.4705 -54.7508 -70.1915 0 88.8779 96.3648 70.9435 -9.52192 -2.22506 20.8155 2.61303 -152.722 9.59912 -177.178 -155.446 49.5989 -160.75 0.375719 -13.4876 -31.2428 -51.2494 35.2028 -107.086 11.3655 -3.62367 -106.588 0.174012 0.00530063 0.788811 -1.80401 6.4376 41.9554 -114.584 -29.8329 67.3168 -0.598311 0.312182 53.2354 -0.0149594 0.0194379 4.24275 -44.0429 8.61344 108.96 -1.48251 38.5782 0.690675 -0.486725 -10.3284 -0.877309 3.40718 -9.14116 8.16034 -45.157 2.41693 86.6587 -0.791298 30.4089 15.2605 -8.78605 -11.2679 1.30147 1.38075 -6.6308 -5.61433 
-266.243 94.5406 -249.991 26.9039 -61.2606 -59.6316 -70.1915 0 88.8779 110.685 69.8687 -24.3635 -4.93454 20.5962 4.28571 -154.106 9.01968 -175.903 -153.29 49.2486 -159.782 0.14919 -14.8501 -30.4032 -50.9379 32.2411 -113.327 12.4397 -4.32737 -107.998 -0.460604 0.0101142 3.57843 -1.99638 7.08837 42.1182 -111.266 -28.9974 72.8038 -0.447079 0.235428 50.2224 0.00912978 0.00928263 2.18653 -36.2888 12.5337 109.789 -2.46281 48.5052 0.890185 -1.53797 -6.22329 -0.482975 5.40927 -12.8758 9.94302 -41.7945 3.98502 88.6841 -0.782458 31.3512 14.7387 -8.36423 -10.6195 1.28542 1.56161 -7.59599 -6.67498 
-266.231 94.1551 -251.904 21.1987 -60.6006 -65.0966 -70.1915 0 88.8779 123.402 67.7939 -37.8698 -7.29919 20.5516 5.72777 -155.674 8.55119 -175.658 -149.437 48.9051 -160.879 -0.139251 -16.4343 -30.115 -51.3313 28.5407 -118.257 14.299 -4.66633 -106.842 -1.0974 -0.0115855 5.59415 -2.10295 7.49073 42.0462 -108.323 -28.4275 78.7479 -0.258805 0.0982017 47.8431 0.0236565 0.00294199 0.952517 -28.1639 15.1601 108.696 -3.88218 56.1068 0.722985 0.0324025 -2.61948 -0.294514 6.80072 -15.3268 12.6132 -37.8513 5.54396 92.4453 0.0386506 32.9745 12.8222 -8.26069 -10.8247 1.28369 2.1421 -9.98314 -12.2319 
-265.955 93.8339 -253.577 15.1055 -58.9937 -71.8545 -70.1915 0 88.8779 132.064 64.6977 -47.712 -9.30884 20.5726 5.9538 -158.476 7.75875 -174.654 -147.202 48.4321 -160.892 -0.321269 -17.4889 -29.7782 -52.8312 25.2798 -120.774 19.9932 -5.3534 -103.604 -1.92473 -0.0524996 6.5105 -2.21402 7.92825 41.8333 -105.465 -28.8727 85.1645 0.193397 -0.337232 45.1145 0.0428113 0.00302703 0.950873 -21.1489 16.0341 107.441 -5.10674 57.5969 -5.85722 -1.23687 -4.58924 -0.340822 7.04065 -15.6968 12.334 -33.2671 6.48846 97.5248 1.25965 34.5984 7.65345 -9.56691 -10.4494 1.32774 2.32569 -13.5236 -15.7748 
-265.565 93.1447 -255.094 9.41619 -57.2629 -78.3428 -70.1915 0 88.8779 138.516 60.7445 -55.7098 -11.1654 20.6402 6.01686 -161.723 6.88691 -173.468 -145.309 47.9699 -160.806 -0.491811 -18.4087 -29.66 -55.7189 22.5035 -122.198 26.0844 -4.49297 -98.1028 -2.84276 -0.102497 7.11358 -2.31071 8.38114 41.4079 -103.096 -29.8518 92.0487 -0.289938 0.15482 42.3698 0.0213244 0.000285291 0.850162 -15.8972 16.7285 106.137 -5.0102 53.4643 -10.1905 -2.19418 -6.92797 -0.485897 7.586 -16.544 11.995 -28.3466 7.17804 100.46 1.78082 37.469 1.60245 -10.9834 -11.9262 1.36037 2.507 -11.8327 -18.0253 
-264.769 92.0187 -256.396 8.19107 -54.9655 -80.6226 -70.1915 0 88.8779 141.88 56.7352 -60.1925 -11.5408 20.0331 5.46072 -164.881 6.21368 -173.719 -142.483 47.5478 -161.689 -0.83116 -20.1005 -29.7363 -59.9763 19.7119 -123.355 28.2064 -1.03764 -91.6783 -3.0283 -0.109379 7.01739 -2.39727 8.60665 41.5394 -101.865 -29.4467 98.2907 -0.265019 0.135622 40.5555 0.0207824 -0.00335423 1.10658 -11.0652 14.9613 102.895 -3.64387 47.3189 -8.05928 -2.45036 -9.61119 -0.736737 6.96112 -15.5961 12.7521 -22.3353 5.11936 98.688 1.82004 42.2656 -0.453711 -10.8152 -12.9083 1.33764 2.46875 -9.2411 -16.5599 
-264.303 90.154 -257.604 3.60053 -51.3156 -85.3929 -70.1915 0 88.8779 144.696 54.2502 -64.1236 -13.414 20.6488 5.70442 -167.639 5.86494 -173.489 -141.626 47.548 -161.505 -1.26443 -21.8126 -30.5824 -64.2833 15.7365 -123.644 20.7716 1.72989 -84.2256 -2.21495 -0.0750704 7.16764 -2.54314 8.82499 42.4119 -100.344 -27.8134 103.413 -0.236261 0.108566 39.3021 0.026448 -0.00754116 0.920559 -4.32107 16.8085 101.068 -2.54001 43.1143 -3.26457 -1.68033 -11.7416 -0.980278 6.19761 -14.4443 13.3888 -14.0849 5.98316 98.9588 2.32831 47.3109 -0.0947523 -10.7502 -10.894 1.36963 2.37707 -9.58537 -15.4474 
-263.26 87.8997 -258.47 1.23522 -48.7541 -87.7928 -70.1915 0 88.8779 147.617 50.838 -67.0577 -13.5286 20.8771 4.82473 -171.171 5.56527 -173.952 -140.537 47.4714 -162.034 -1.63605 -23.4413 -30.6957 -69.2698 12.4714 -126.336 7.51351 2.09943 -74.2528 -0.64081 0.00134005 6.5227 -2.61688 9.03506 42.3071 -99.0857 -26.2441 109.696 -3.09202 3.88618 36.9517 -0.130382 -0.0114809 1.16879 1.19859 18.2928 100.068 -2.05923 41.5153 -0.271552 -1.96666 -12.3102 -1.02627 4.90885 -12.3824 13.1088 -6.93376 5.87386 98.2064 3.27285 53.6755 0.2149 -10.6964 -11.8183 1.35205 2.25356 -10.7095 -13.9502 
-262.008 85.2436 -258.935 -2.06795 -47.0168 -89.5572 -70.1915 0 88.8779 151.651 46.3076 -69.4497 -14.1161 21.2856 3.45998 -174.328 4.99798 -173.886 -141.3 47.4813 -160.71 -1.86633 -24.2775 -30.9816 -74.3682 8.35451 -130.044 0.952772 0.535375 -62.4925 0.00629851 0.0240972 5.30307 -2.94218 9.90591 42.6467 -96.9953 -22.7468 116.53 -5.19899 7.79709 32.8168 -0.383702 -0.0153359 1.77705 7.57007 21.179 97.9711 -2.24034 45.6708 -0.3268 -3.38106 -9.64804 -0.696435 4.69126 -11.849 10.4589 -0.839707 6.03929 95.7188 4.71523 59.8616 0.0960534 -11.3614 -13.3315 1.33705 2.05972 -12.3814 -10.2076 
-260.71 82.3873 -259.092 -6.99699 -45.8406 -93.1989 -70.1915 0 88.8779 155.549 41.346 -74.5188 -17.2386 22.0056 4.62457 -175.95 4.76213 -173.08 -142.863 47.8528 -158.737 -2.82284 -26.3247 -34.1449 -77.5617 -1.2852 -132.247 -6.46479 -4.96006 -51.4942 0.511072 0.0303689 4.17188 -3.41461 10.5536 45.057 -93.4268 -14.5159 122.703 -7.53917 13.1088 29.5153 -1.07718 -0.0196721 1.41528 14.7573 26.4208 97 -3.30355 54.8827 4.28686 -4.5627 -5.95584 -0.210536 2.37185 -6.50836 4.94089 4.33027 7.05446 93.9653 7.13121 65.9152 0.220123 -11.6753 -15.0764 1.30185 2.05999 -13.2741 -9.49552 
-259.367 79.7065 -259.033 -10.7222 -45.9802 -96.505 -70.1915 0 88.8779 157.909 34.6289 -79.2775 -19.9832 22.5412 4.88823 -176.285 4.43605 -175.204 -141.741 47.1762 -159.434 -3.79963 -28.7521 -35.8457 -79.9641 -11.8183 -134.515 -12.2724 -13.0906 -42.8791 0.561214 0.0211549 2.8214 -3.97864 10.6394 48.9309 -90.7638 -2.93491 128.886 -11.0957 22.2092 26.8566 -2.35181 -0.0198061 0.617358 19.9476 30.8361 96.1338 -5.52419 63.3931 2.7159 -4.06448 -5.91064 -0.23941 2.89782 -8.38253 8.86069 7.65014 6.61535 92.2889 11.3277 71.7086 -0.501009 -11.533 -16.9223 1.25425 2.189 -13.9642 -12.3255 
-257.746 77.1757 -258.776 -14.3606 -44.7529 -99.6046 -70.1915 0 88.8779 158.426 31.1502 -81.6607 -18.2101 22.6597 4.64666 177.416 3.4763 -172.46 -147.282 47.6077 -156.133 -3.67457 -28.9788 -34.5655 -85.9222 -14.5803 -139.433 -14.0796 -19.6424 -35.8151 -0.461139 0.00827553 2.14059 -4.06917 12.7933 43.702 -91.8985 -6.26493 134.591 -11.3023 24.6782 25.1213 -2.14489 -0.00804332 -0.0335486 26.1691 34.2209 94.2828 -9.04291 70.8775 6.07239 -1.30052 -6.97119 -0.548046 2.41596 -7.23469 7.51702 11.6229 4.85519 89.7397 17.7474 76.3095 -2.73982 -13.2768 -17.6216 1.19424 2.19667 -16.3229 -10.1526 
